<?xml version="1.0" standalone="no"?>
<!DOCTYPE svg PUBLIC "-//W3C//DTD SVG 20010904//EN"
 "http://www.w3.org/TR/2001/REC-SVG-20010904/DTD/svg10.dtd">
<svg version="1.0" xmlns="http://www.w3.org/2000/svg"
 width="300.000000pt" height="300.000000pt" viewBox="0 0 300.000000 300.000000"
 preserveAspectRatio="xMidYMid meet">
<metadata>
Created by potrace 1.14, written by Peter Selinger 2001-2017
</metadata>
<g transform="translate(0.000000,300.000000) scale(0.100000,-0.100000)"
fill="#000000" stroke="none">
<path d="M1475 2626 c-11 -7 -45 -27 -75 -44 -30 -17 -152 -86 -270 -155
l-215 -125 -3 -166 c-1 -91 0 -166 3 -166 3 0 81 44 173 97 295 171 405 233
412 233 7 0 117 -62 412 -233 92 -53 170 -97 173 -97 3 0 4 75 3 166 l-3 166
-215 125 c-268 156 -368 213 -372 213 -2 0 -12 -6 -23 -14z"/>
<path d="M910 1253 c0 -472 5 -518 60 -621 59 -111 169 -200 302 -243 64 -21
91 -24 228 -24 126 0 165 4 210 19 151 52 267 142 320 249 55 113 60 159 60
625 l0 422 -155 0 -154 0 -3 -417 c-3 -400 -4 -420 -24 -463 -44 -94 -149
-160 -254 -160 -105 0 -210 66 -254 160 -20 43 -21 63 -24 463 l-3 417 -154 0
-155 0 0 -427z"/>
</g>
</svg>
